# xmcd
#
# Track frame offsets: 
#        150
#        16233
#        33541
#        53698
#        73045
#        87730
#        105926
#
# Disc length: 1645 seconds
#
# Revision: 0
# Processed by: cddbd v1.5.2PL0 Copyright (c) Steve Scherf et al.
# Submitted via: ExactAudioCopy v0.99pb4
#
DISCID=53066b07
DTITLE=Daniela Cotton - Rare Child
DYEAR=2009
DGENRE=Blues
TTITLE0=Righteous People
TTITLE1=Make U Move
TTITLE2=Bang My Drum
TTITLE3=Bound
TTITLE4=Devil In Disguise
TTITLE5=Dark Desire
TTITLE6=Rare Child
EXTD=
EXTT0=
EXTT1=
EXTT2=
EXTT3=
EXTT4=
EXTT5=
EXTT6=
PLAYORDER=
